<svg xmlns="http://www.w3.org/2000/svg" viewBox="0 0 515.46 451.05"><g style="isolation:isolate"><g id="Layer_1" data-name="Layer 1"><circle cx="308.25" cy="205.33" r="193.02" transform="translate(-54.9 278.1) rotate(-45)" style="fill:#fee19d"/><path d="M206.07,409.34s-1-88.31,58.6-141.28c27.05-24,89.59,6.95,29.58,47.72C269.45,332.63,231.65,347.63,206.07,409.34Z" style="fill:#469da4"/><path d="M286,284.81s-86,56.55-81.24,157" style="fill:none;stroke:#6bb1b6;stroke-miterlimit:10;stroke-width:1.36637px"/><ellipse cx="304.89" cy="440.02" rx="66.7" ry="9.3" style="opacity:0.1;mix-blend-mode:overlay"/><path d="M186.19,406.28s-3.05-96.87-125.5-144.73C18.48,245.05-43,305.23,44.4,330,80.54,340.18,131.39,343.06,186.19,406.28Z" style="fill:#256d6c"/><path d="M41.93,289.89s124.53,33.22,158.64,154.48" style="fill:none;stroke:#6bb1b6;stroke-miterlimit:10;stroke-width:1.7113200000000002px"/><path d="M98.12,204.59c7.94,5.3,10.38,15.59,10.38,15.59s-10.44,1.69-18.38-3.61S77.53,204.29,79.74,201,90.18,199.29,98.12,204.59Z" style="fill:#6bb1b6"/><path d="M116.35,227.28c6.69,2.7,10.08,9.94,10.08,9.94s-7.47,2.86-14.16.16-11.21-7.15-10.08-9.94S109.65,224.58,116.35,227.28Z" style="fill:#6bb1b6"/><path d="M123.35,218.76c2.77,6.67,0,14.16,0,14.16s-7.27-3.31-10-10-2.77-13,0-14.15S120.58,212.1,123.35,218.76Z" style="fill:#6bb1b6"/><path d="M127.56,242.19c8.48,2,13.86,10,13.86,10s-8.36,4.8-16.84,2.83-14.69-6.43-13.87-10S119.07,240.22,127.56,242.19Z" style="fill:#6bb1b6"/><path d="M142.44,233.36c2.44,8.36-1.89,17-1.89,17s-8.29-4.94-10.72-13.3-1.59-15.95,1.9-17S140,225,142.44,233.36Z" style="fill:#6bb1b6"/><path d="M135.64,259.72c8.71,0,15.79,6.52,15.79,6.52s-7,6.59-15.75,6.62-15.77-2.89-15.78-6.51S126.93,259.75,135.64,259.72Z" style="fill:#6bb1b6"/><path d="M146.32,279.08c9.29-.43,17.14,6.22,17.14,6.22s-7.2,7.35-16.49,7.78-16.95-2.35-17.13-6.22S137,279.51,146.32,279.08Z" style="fill:#6bb1b6"/><path d="M156,298.44c9.19-1.38,17.67,4.44,17.67,4.44s-6.41,8.05-15.6,9.42-17.1-.61-17.68-4.44S146.85,299.81,156,298.44Z" style="fill:#6bb1b6"/><path d="M167,320.48c9.29.15,16.71,7.29,16.71,7.29s-7.65,6.88-16.94,6.72-16.77-3.41-16.71-7.29S157.74,320.32,167,320.48Z" style="fill:#6bb1b6"/><path d="M150.81,248.45c-3.43,8-.18,17.08-.18,17.08s8.82-3.9,12.25-11.9,3.52-15.65.18-17.08S154.24,240.45,150.81,248.45Z" style="fill:#6bb1b6"/><path d="M166.89,267.64c-5.26,7.66-3.75,17.84-3.75,17.84s10-2.24,15.3-9.9,6.94-15.65,3.75-17.84S172.15,260,166.89,267.64Z" style="fill:#6bb1b6"/><path d="M178.21,286.1c-6,7.08-5.54,17.36-5.54,17.36s10.22-1.2,16.23-8.29,8.5-14.86,5.55-17.36S184.23,279,178.21,286.1Z" style="fill:#6bb1b6"/><path d="M185.78,310.05c-4.77,8-2.61,18-2.61,18s9.88-2.88,14.64-10.85,5.94-16.06,2.62-18S190.55,302.07,185.78,310.05Z" style="fill:#6bb1b6"/><path d="M176.44,343.62c9.06,2.07,14.85,10.58,14.85,10.58s-8.91,5.16-18,3.09-15.7-6.81-14.84-10.58S167.38,341.55,176.44,343.62Z" style="fill:#6bb1b6"/><path d="M196.94,337.28c-6.31,6.82-6.28,17.11-6.28,17.11s10.26-.77,16.57-7.59,9.12-14.49,6.28-17.12S203.24,330.45,196.94,337.28Z" style="fill:#6bb1b6"/><path d="M182.35,368.76c8.86,2.83,13.89,11.8,13.89,11.8s-9.31,4.38-18.16,1.55S163,374,164.19,370.31,173.5,365.93,182.35,368.76Z" style="fill:#6bb1b6"/><path d="M203.31,364.18c-6.86,6.27-7.71,16.52-7.71,16.52s10.29.11,17.16-6.15,10.32-13.66,7.71-16.52S210.18,357.92,203.31,364.18Z" style="fill:#6bb1b6"/><path d="M99,214.22s45.6,24.69,76,93.68,24.62,134.22,24.62,134.22" style="fill:none;stroke:#6bb1b6;stroke-miterlimit:10;stroke-width:1.2832400000000002px"/><path d="M502.26,292.44c-5.91,3-8.44,9.89-8.44,9.89s7.05,2,13-1,9.69-7.42,8.44-9.88S508.17,289.45,502.26,292.44Z" style="fill:#6bb1b6"/><path d="M487.83,306.58c-4.83,1.3-7.76,6-7.76,6s4.9,2.59,9.74,1.28,8.31-4,7.76-6S492.67,305.27,487.83,306.58Z" style="fill:#6bb1b6"/><path d="M483.71,300.13c-2.46,4.37-1.16,9.76-1.16,9.76s5.29-1.69,7.75-6.05,3-8.73,1.15-9.75S486.17,295.77,483.71,300.13Z" style="fill:#6bb1b6"/><path d="M478.88,315.93c-6,.66-10.37,5.72-10.37,5.72s5.36,4,11.37,3.34,10.65-3.22,10.37-5.73S484.89,315.27,478.88,315.93Z" style="fill:#6bb1b6"/><path d="M469.35,308.61c-2.36,5.56-.09,11.85-.09,11.85s6.11-2.72,8.48-8.28,2.41-10.86.09-11.85S471.72,303.06,469.35,308.61Z" style="fill:#6bb1b6"/><path d="M471.87,327.34c-6-.74-11.41,3.18-11.41,3.18s4.3,5.13,10.29,5.86,11.11-.68,11.42-3.18S477.86,328.07,471.87,327.34Z" style="fill:#6bb1b6"/><path d="M462.91,339.79c-6.36-1.06-12.31,2.88-12.31,2.88s4.35,5.65,10.71,6.72,11.87-.23,12.32-2.88S469.27,340.85,462.91,339.79Z" style="fill:#6bb1b6"/><path d="M454.62,352.33c-6.21-1.71-12.54,1.6-12.54,1.6s3.76,6.07,10,7.78,11.84,1,12.55-1.61S460.84,354,454.62,352.33Z" style="fill:#6bb1b6"/><path d="M445.23,366.6c-6.41-.66-12.11,3.65-12.11,3.65s4.71,5.37,11.12,6,11.84-1,12.11-3.65S451.65,367.26,445.23,366.6Z" style="fill:#6bb1b6"/><path d="M462.35,318.32c1.7,5.8-1.29,11.78-1.29,11.78s-5.75-3.41-7.46-9.2-1.13-11.07,1.29-11.78S460.64,312.53,462.35,318.32Z" style="fill:#6bb1b6"/><path d="M449.69,330.21c3,5.71,1.11,12.6,1.11,12.6s-6.73-2.37-9.73-8.08-3.49-11.35-1.11-12.6S446.7,324.5,449.69,330.21Z" style="fill:#6bb1b6"/><path d="M440.36,342c3.56,5.38,2.39,12.42,2.39,12.42s-6.94-1.68-10.5-7.05-4.62-10.94-2.38-12.42S436.81,336.62,440.36,342Z" style="fill:#6bb1b6"/><path d="M433.18,357.87c2.63,5.89.31,12.64.31,12.64s-6.57-2.79-9.2-8.68-2.76-11.54-.31-12.64S430.55,352,433.18,357.87Z" style="fill:#6bb1b6"/><path d="M436.84,381.77c-6.41.68-11.09,6.06-11.09,6.06s5.71,4.29,12.12,3.61,11.38-3.39,11.1-6.06S443.26,381.09,436.84,381.77Z" style="fill:#6bb1b6"/><path d="M423.25,375.71c3.78,5.22,2.91,12.31,2.91,12.31s-7-1.38-10.79-6.6-5.09-10.73-2.91-12.3S419.46,370.49,423.25,375.71Z" style="fill:#6bb1b6"/><path d="M430.7,398.6c-6.33,1.22-10.54,7-10.54,7s6,3.78,12.38,2.56,11-4.35,10.54-7S437,397.38,430.7,398.6Z" style="fill:#6bb1b6"/><path d="M416.64,393.72c4.21,4.88,3.95,12,3.95,12s-7.1-.78-11.31-5.66-6-10.26-3.95-12S412.42,388.84,416.64,393.72Z" style="fill:#6bb1b6"/><path d="M500.87,299s-33.44,13.26-60.08,58.27-28,90.44-28,90.44" style="fill:none;stroke:#6bb1b6;stroke-miterlimit:10;stroke-width:0.89034px"/><path d="M401.79,411.45S367.51,306.29,419,220.67c23.35-38.84,109.68-25.2,53.2,46C448.85,296.07,409.28,328.13,401.79,411.45Z" style="fill:#469da4"/><path d="M450.78,232.7s-81.61,99.75-38.39,218.06" style="fill:none;stroke:#6bb1b6;stroke-miterlimit:10;stroke-width:1.71127px"/><path d="M419.07,429.89s15.85-50.8,59.9-70.05c20-8.73,50,20.67,8.06,32.86C469.68,397.74,445.22,399.29,419.07,429.89Z" style="fill:#256d6c"/><path d="M488.08,373.41s-59.8,16.4-75.8,74.86" style="fill:none;stroke:#6bb1b6;stroke-miterlimit:10;stroke-width:0.823411px"/><path d="M373.91,43.3l-.23-12.11a7.06,7.06,0,0,0-2.35-5.09c-2.35-2.11-5.25-5.87-4.58-6.75,1.26-1.64,5.36,4.33,7,3.11.49-.37-2.33-16.67-.66-16.57,1.31.08,1.82,9.26,2.4,9.19S375.94-.12,377.14,0s1.57,13.89,2.36,13.39c1.17-.74,0-12.11,1.9-12.65,1.3-.37,1.1,14.46,1.83,14.72.9.32,1.29-9.59,2.41-9.2,1.55.54-.79,17.42-.79,17.42L381.91,45.1Z" style="fill:#ffb49b"/><path d="M198.42,97.26l-8.16-9A7,7,0,0,1,188.47,83c.25-3.15-.23-7.88-1.32-8-2-.33-.91,6.83-3,7.08-.61.07-9.77-13.71-10.92-12.48-.89,1,5.06,8,4.59,8.32S167.09,67.13,166.3,68s8.41,11.16,7.49,11.35c-1.36.26-8.3-8.81-10.08-7.88-1.19.62,9.15,11.26,8.8,11.94-.43.86-7.53-6.07-8.08-5C163.68,79.89,177,90.54,177,90.54l16.87,13.53Z" style="fill:#ffb49b"/><path d="M310.7,66.13A36.34,36.34,0,0,0,271,38.56a78.82,78.82,0,0,1-20.24.19l-9.72-1.29c-16.29-2.13-29.37,13.48-24.23,29.09.07.2.13.39.2.58a85.21,85.21,0,0,1,4.39,26.4c0,.75,0,1.51.1,2.27a36.3,36.3,0,0,0,37.87,33.59,66,66,0,0,1,28.44,4.66c3.87,1.61,7.85,2.82,11,2.82A36.36,36.36,0,0,0,310.7,66.13Z" style="fill:#5d0f15"/><path d="M395.37,61.81s-5.64,56.29-14.25,72.69c-6.8,12.95-40.86,41.88-40.86,41.88a11.59,11.59,0,0,1-17.14-.61h0A11.6,11.6,0,0,1,322,162.42s31.07-33.51,35.68-47.66c4.38-13.41-.7-56.44-.7-56.44a19.38,19.38,0,0,1,23.6-19.15h0A19.38,19.38,0,0,1,395.37,61.81Z" style="fill:#fff"/><path d="M353.84,377.59c-6.33-2.1-7.52,2.34-9.64,10.22s-2.52,13.85-.48,14.4c1.89.51,4.6-2.27,9.14-9.06C358.31,385,358,379,353.84,377.59Z" style="fill:#41378c"/><path d="M358.68,369.67l-6.15,8.52c-2,2.67-1.89,4.61-.68,5.8h0a3.24,3.24,0,0,0,4.45.1l10.21-8.55Z" style="fill:#ffb49b"/><path d="M336.12,223.84C305.17,236,313.73,278,328.31,286.61c21.69,12.86,64.94,7.46,65,10.81.15,14.13-37.57,73.43-37.57,73.43a1.56,1.56,0,0,0,.17,1.76,30.37,30.37,0,0,0,7.62,6.67A1.3,1.3,0,0,0,365,379c21.13-19.68,64-68.3,69.08-89.25C442.52,254.75,341.91,221.56,336.12,223.84Z" style="fill:#b44729"/><path d="M184.57,355.39c-2.72-6.1-6.8-4-14-.23s-11.92,7.48-11,9.36,4.78,1.86,12.85.63C182.12,363.68,186.34,359.36,184.57,355.39Z" style="fill:#41378c"/><path d="M193.68,353.61l-10.44,1.21c-3.3.35-4.67,1.71-4.74,3.42h0a3.25,3.25,0,0,0,2.94,3.34l13.2,1.77Z" style="fill:#ffb49b"/><path d="M338.13,228.76c-6.34-6.54-36.43-1.34-36.43-1.34-31.14,11.68-29.57,38.82-26.12,55.42,5.13,24.68-2.77,45.29-5.22,47.57-10.33,9.64-79.55,21.8-79.55,21.8a1.57,1.57,0,0,0-1.19,1.32,30.44,30.44,0,0,0,.22,10.13c.09.54.71.84,1.26.88,28.78,2.33,86.75,7.39,105.22-3.7C338.65,335.43,362.22,253.64,338.13,228.76Z" style="fill:#f05e37"/><path d="M338,240.62a24.76,24.76,0,0,0,20.64-17.4c4.24-14.06,10-37,7.39-50.14-2.46-12.26-11.94-35-35.73-35-15.87,0-47.89,4.71-45.8,29.06,1.31,15.18,3.91,43.73,15.84,62.84a17.92,17.92,0,0,0,9.66,7.6C316.16,239.6,326.62,242.05,338,240.62Z" style="fill:#fff"/><path d="M319.13,115.49h16.65a0,0,0,0,1,0,0v31.72a4.07,4.07,0,0,1-4.07,4.07H323.2a4.07,4.07,0,0,1-4.07-4.07V115.49a0,0,0,0,1,0,0Z" style="fill:#ffa587"/><path d="M334.12,136.87h0a11.5,11.5,0,0,0,1.66-.14V115.49H319.13v3.1C319.13,126.86,325.84,136.87,334.12,136.87Z" style="fill:#f5876e"/><path d="M337.88,131.12h0c-6.81,2.61-19.09-2.13-21.69-8.94,0,0-5.68-10.3-5.37-14,1.4-17.31,17.92-14,23.94-11.28,3.43,1.54,5.11,12.26,6.08,15.9C342.71,119.8,340.85,130,337.88,131.12Z" style="fill:#ffb49b"/><path d="M308.65,117.8a5.86,5.86,0,0,0,7.55,3.43l-4.22-11A5.85,5.85,0,0,0,308.65,117.8Z" style="fill:#ffa587"/><path d="M334.76,96.86l-20.77,8,1.75,4.57a4.32,4.32,0,0,0-2.26,5.5,4,4,0,0,0,.93,1.46,6.37,6.37,0,0,0,1.14-1.3,5.74,5.74,0,0,1,2.81-2.18,11.44,11.44,0,0,0,5.72-4.9,12.54,12.54,0,0,1,8.14-6.07,15.77,15.77,0,0,0,2.17-.64,16.17,16.17,0,0,0,1.73-.82Z" style="fill:#ffa587"/><path d="M320.84,69.14a16.26,16.26,0,0,0-9.15,9.72,20.57,20.57,0,0,1-8.89,10.46l-.14.09a13.19,13.19,0,0,0-5.81,13.37,13.89,13.89,0,0,0,.52,2,14.39,14.39,0,0,1,.85,6.49,6.46,6.46,0,0,0,.36,3.09,7.09,7.09,0,0,0,9.27,3.78,7.55,7.55,0,0,0,3.63-2.91,6.59,6.59,0,0,1,3.2-2.49,13,13,0,0,0,6.52-5.59,14.35,14.35,0,0,1,9.28-6.92,15.1,15.1,0,0,0,2.47-.73,16.34,16.34,0,0,0,9.25-21.53C338.88,70,328.82,65.82,320.84,69.14Z" style="fill:#420608"/><path d="M188.53,117.92s37.07,34.43,53.88,41.61c12.15,5.19,59.35,10.17,59.35,10.17A10.87,10.87,0,0,0,315,161.15h0a10.14,10.14,0,0,0-5.14-10.84s-41.91-6.78-53.54-13.44-39-39.75-39-39.75C206.73,86.94,198.41,85.6,190,93.46h0C182.92,100.06,180.06,112.66,188.53,117.92Z" style="fill:#fff"/></g></g></svg>