<svg id="Layer_1" data-name="Layer 1" xmlns="http://www.w3.org/2000/svg" viewBox="0 0 64.81 63.16"><path d="M51.38,6.42H13.7A7.28,7.28,0,0,0,6.42,13.7V51.38a7.28,7.28,0,0,0,6.07,7.18c.1-.21.19-.43.3-.63a60.8,60.8,0,0,1,8.87-12.58c2-2.25,4.11-4.42,6.17-6.64a2,2,0,0,0,.41-.58.87.87,0,0,0-.38-1,.9.9,0,0,0-1.16.18c-1.17,1.2-2.34,2.4-3.48,3.62a93.2,93.2,0,0,0-7.82,9.36l-.16.2c0-.38.06-.65.09-.91s.06-.54.09-.81A35.53,35.53,0,0,1,39,20.19a34.26,34.26,0,0,1,9.34-1.85c.13,0,.25-.05.37-.07h2a1.19,1.19,0,0,1,.67,1.21,36.51,36.51,0,0,1-1.88,11,1.47,1.47,0,0,1-.68.83c-1.76,1-3.52,2-5.28,3a1.33,1.33,0,0,0-.39.31h3.07a.92.92,0,0,1,.86,1.46A35.38,35.38,0,0,1,20.71,54.23c-1.14.15-2.31.2-3.47.28a.6.6,0,0,0-.54.31c-.8,1.25-1.54,2.54-2.23,3.85H51.38a7.29,7.29,0,0,0,7.29-7.29V13.7A7.28,7.28,0,0,0,51.38,6.42Z"/></svg>